<?xml version="1.0" encoding="iso-8859-1"?>
<!-- Generator: Adobe Illustrator 19.0.0, SVG Export Plug-In . SVG Version: 6.00 Build 0)  -->
<svg version="1.1" id="Layer_1" xmlns="http://www.w3.org/2000/svg" xmlns:xlink="http://www.w3.org/1999/xlink" x="0px" y="0px"
	 viewBox="0 0 460 460" style="enable-background:new 0 0 460 460;" xml:space="preserve">
<g>
	<path style="fill:#C2FBFF;" d="M172.758,452.82C73.426,427.377,0,337.264,0,230C0,102.975,102.975,0,230,0
		c97.288,0,180.468,60.404,214.082,145.754L172.758,452.82z"/>
	<path style="fill:#71E2F0;" d="M444.08,145.754l-63.598-63.598L328,96.5l-15.59,43.02L83.1,254.27l40.314,40.314l-40.313,9.685
		l37.5,37.5l-29.446,29.445l81.603,81.603C191.059,457.505,210.238,460,230,460c127.026,0,230-102.975,230-230
		C460,200.262,454.355,171.843,444.08,145.754z"/>
	<path style="fill:#121149;" d="M103.101,351.769l7.5,27.5c15.188,0,27.5-12.312,27.5-27.5s-12.312-27.5-27.5-27.5L103.101,351.769z
		"/>
	<path style="fill:#273B7A;" d="M83.101,351.769c0,15.188,12.312,27.5,27.5,27.5v-55C95.413,324.269,83.101,336.581,83.101,351.769z
		"/>
	<path style="fill:#121149;" d="M249.682,351.769l7.5,27.5c15.188,0,27.5-12.312,27.5-27.5s-12.312-27.5-27.5-27.5L249.682,351.769z
		"/>
	<path style="fill:#273B7A;" d="M229.682,351.769c0,15.188,12.312,27.5,27.5,27.5v-55
		C241.994,324.269,229.682,336.581,229.682,351.769z"/>
	<polygon style="fill:#5488A8;" points="183.38,139.52 203.38,196.895 183.38,254.27 83.1,254.27 64.35,139.52 	"/>
	<polygon style="fill:#366796;" points="312.41,139.52 293.6,254.27 183.38,254.27 183.38,139.52 	"/>
	<path style="fill:#121149;" d="M257.182,304.269H83.101v-20h174.081c11.657,0,23.099-9.719,24.984-21.222l23.424-142.903
		c3.434-20.947,23.496-37.988,44.721-37.988h30.171v20h-30.171c-11.657,0-23.099,9.719-24.985,21.223l-23.424,142.903
		C298.469,287.228,278.407,304.269,257.182,304.269z"/>
	<path style="fill:#C2001B;" d="M413,246.976c0,42.688-34.605,77.293-77.293,77.293l-27.293-77.293l27.293-77.293
		C378.395,169.682,413,204.288,413,246.976z"/>
	<path style="fill:#FF0F27;" d="M258.413,246.976c0,42.688,34.605,77.293,77.293,77.293V169.682
		C293.019,169.682,258.413,204.288,258.413,246.976z"/>
	<polygon style="fill:#FFFFFF;" points="378.707,236.976 345.707,236.976 345.707,203.976 325.707,203.976 325.707,236.976 
		292.707,236.976 292.707,256.976 325.707,256.976 325.707,289.976 345.707,289.976 345.707,256.976 378.707,256.976 	"/>
</g>
<g>
</g>
<g>
</g>
<g>
</g>
<g>
</g>
<g>
</g>
<g>
</g>
<g>
</g>
<g>
</g>
<g>
</g>
<g>
</g>
<g>
</g>
<g>
</g>
<g>
</g>
<g>
</g>
<g>
</g>
</svg>
